<?xml version="1.0" standalone="no"?>
<!DOCTYPE svg PUBLIC "-//W3C//DTD SVG 20010904//EN"
 "http://www.w3.org/TR/2001/REC-SVG-20010904/DTD/svg10.dtd">
<svg version="1.0" xmlns="http://www.w3.org/2000/svg"
 width="1536.000000pt" height="1024.000000pt" viewBox="0 0 1536.000000 1024.000000"
 preserveAspectRatio="xMidYMid meet">
<metadata>
Created by potrace 1.16, written by Peter Selinger 2001-2019
</metadata>
<g transform="translate(0.000000,1024.000000) scale(0.100000,-0.100000)"
fill="#000000" stroke="none">
<path d="M10436 9938 c3 -5 10 -6 15 -3 13 9 11 12 -6 12 -8 0 -12 -4 -9 -9z"/>
<path d="M10436 9458 c3 -5 10 -6 15 -3 13 9 11 12 -6 12 -8 0 -12 -4 -9 -9z"/>
<path d="M10910 8770 c-9 -6 -10 -10 -3 -10 6 0 15 5 18 10 8 12 4 12 -15 0z"/>
<path d="M836 8098 c3 -5 10 -6 15 -3 13 9 11 12 -6 12 -8 0 -12 -4 -9 -9z"/>
<path d="M11895 7279 c-6 -8 -4 -10 6 -4 8 5 11 4 6 -1 -13 -13 -1420 -13
-1429 0 -5 8 -8 8 -8 0 0 -16 -461 -18 -472 -1 -5 8 -8 8 -8 1 0 -8 -54 -12
-172 -13 -408 -4 -668 -42 -980 -145 -59 -19 -144 -51 -188 -70 -44 -20 -88
-33 -97 -30 -13 4 -14 3 -5 -3 9 -7 5 -13 -15 -22 -15 -7 -70 -38 -122 -68
-94 -56 -95 -56 -73 -74 12 -9 22 -20 22 -24 0 -3 14 -18 30 -32 17 -14 29
-33 28 -42 -2 -9 2 -15 9 -14 14 3 92 -119 126 -197 51 -117 102 -337 95 -411
-2 -21 1 -35 6 -32 24 15 -14 -436 -49 -569 -7 -27 -8 -48 -4 -48 5 0 32 46
60 101 77 154 172 295 191 283 7 -5 8 -2 3 5 -9 15 73 103 88 94 6 -4 7 -1 2
6 -9 15 64 83 79 74 5 -3 6 -1 3 4 -13 20 182 161 204 147 8 -4 10 -3 5 5 -5
8 24 26 88 56 101 48 111 51 101 35 -3 -5 -1 -10 4 -10 6 0 11 7 11 15 0 17
122 56 268 87 103 21 426 39 474 27 17 -5 28 -3 31 4 3 9 10 9 23 2 12 -7 72
-9 154 -7 161 4 148 4 283 0 59 -2 107 -1 107 2 0 3 55 4 122 3 252 -5 516 0
522 9 9 15 133 223 276 466 125 212 176 290 182 280 7 -9 8 -8 4 5 -3 10 4 35
17 57 16 29 19 42 11 50 -9 9 -14 9 -19 -1z"/>
<path d="M4946 7272 c-5 -8 -289 -12 -901 -12 -14 0 -5 -10 30 -33 28 -19 49
-39 47 -46 -1 -7 2 -10 7 -7 13 8 62 -34 55 -46 -4 -7 -2 -8 5 -4 18 12 141
-91 136 -114 -2 -11 1 -23 7 -26 6 -4 8 -2 4 4 -3 6 -2 14 4 17 12 7 87 -54
82 -68 -1 -5 1 -6 6 -3 11 7 238 -174 234 -188 -2 -6 0 -8 4 -4 9 10 64 -30
61 -45 -1 -7 4 -11 10 -10 14 3 239 -175 236 -186 -1 -4 4 -8 11 -8 6 0 36
-17 65 -39 l52 -39 397 -3 c218 -1 402 -2 407 -2 141 4 443 5 450 1 15 -8 36
-10 31 -3 -4 8 299 6 405 -2 142 -10 268 -59 355 -138 100 -92 134 -173 141
-337 7 -168 -29 -338 -109 -516 -45 -100 -120 -225 -132 -218 -5 3 -6 1 -3 -4
12 -20 -123 -181 -245 -292 -43 -39 -50 -42 -65 -30 -16 13 -17 12 -5 -2 11
-15 7 -21 -28 -49 -22 -18 -45 -28 -51 -24 -7 4 -9 3 -5 -4 16 -25 -259 -167
-449 -231 -141 -47 -326 -93 -358 -88 -12 2 -15 2 -7 -1 8 -3 -48 -17 -125
-33 -164 -32 -462 -75 -470 -67 -9 9 17 68 28 61 6 -3 7 -1 3 6 -8 12 32 107
384 941 279 661 324 770 318 776 -3 3 -277 5 -609 6 l-602 0 -13 -23 c-7 -13
-45 -95 -85 -181 -42 -93 -76 -155 -82 -151 -6 3 -7 1 -3 -6 10 -15 -25 -92
-37 -84 -6 3 -7 1 -3 -5 9 -14 -78 -204 -89 -194 -5 4 -5 2 -2 -5 4 -6 -11
-49 -32 -95 -41 -88 -228 -495 -326 -710 -31 -70 -61 -125 -65 -123 -5 3 -6
-5 -2 -17 3 -13 1 -19 -5 -15 -6 4 -10 1 -9 -6 2 -22 -258 -586 -268 -580 -5
3 -6 1 -2 -5 6 -9 -8 -44 -91 -224 -15 -32 -29 -58 -33 -58 -4 0 -7 -6 -7 -14
0 -26 -177 -405 -187 -399 -5 3 -6 1 -2 -5 4 -6 -27 -84 -69 -174 -41 -89 -75
-166 -75 -169 0 -4 28 2 63 13 34 10 208 60 387 109 179 50 406 113 505 140
111 31 189 48 205 44 15 -3 20 -2 13 3 -16 10 181 67 203 58 8 -3 13 -2 10 3
-3 5 23 16 59 25 76 19 89 20 79 4 -4 -7 -3 -8 5 -4 6 4 9 11 6 15 -2 5 42 21
98 36 158 42 723 196 1022 278 149 42 347 96 440 122 204 56 292 82 449 129
66 20 126 34 133 31 8 -2 12 -1 9 4 -3 5 34 23 82 41 203 76 456 212 610 326
40 30 78 52 84 48 6 -4 8 -3 5 3 -3 5 33 44 81 87 48 42 105 96 126 121 22 24
43 42 48 39 5 -3 7 -1 6 4 -2 5 20 38 48 73 27 35 59 76 71 91 11 15 23 25 27
23 3 -3 4 -2 2 1 -3 3 18 42 46 87 57 91 153 282 170 338 6 21 15 36 19 33 5
-3 6 3 2 12 -5 13 -3 15 7 9 9 -5 11 -4 6 3 -4 6 9 62 28 124 47 157 64 233
81 361 35 265 6 513 -86 730 -16 38 -26 74 -22 80 3 6 1 7 -5 3 -14 -8 -46 50
-36 66 4 6 3 8 -3 5 -14 -9 -46 40 -37 55 4 6 3 8 -4 5 -5 -4 -26 14 -45 40
-20 27 -51 63 -71 82 -19 19 -33 38 -30 43 3 5 1 7 -4 6 -5 -2 -39 20 -75 49
-202 161 -421 256 -702 302 -199 34 -324 41 -673 41 -216 0 -331 4 -327 10 4
6 -3 6 -21 0 -34 -13 -1384 -12 -1401 2 -7 5 -13 5 -17 0z"/>
<path d="M9648 7273 c6 -2 18 -2 25 0 6 3 1 5 -13 5 -14 0 -19 -2 -12 -5z"/>
<path d="M9708 7273 c7 -3 16 -2 19 1 4 3 -2 6 -13 5 -11 0 -14 -3 -6 -6z"/>
<path d="M9473 7263 c9 -2 25 -2 35 0 9 3 1 5 -18 5 -19 0 -27 -2 -17 -5z"/>
<path d="M11906 7173 c-6 -14 -5 -15 5 -6 7 7 10 15 7 18 -3 3 -9 -2 -12 -12z"/>
<path d="M8325 6830 c-3 -5 1 -10 10 -10 9 0 13 5 10 10 -3 6 -8 10 -10 10 -2
0 -7 -4 -10 -10z"/>
<path d="M11665 6781 c-3 -5 -2 -12 3 -15 5 -3 9 1 9 9 0 17 -3 19 -12 6z"/>
<path d="M8480 6621 c0 -5 7 -11 14 -14 10 -4 13 -1 9 9 -6 15 -23 19 -23 5z"/>
<path d="M4932 6520 c7 -11 17 -20 22 -20 5 0 1 9 -9 20 -10 11 -20 20 -22 20
-2 0 2 -9 9 -20z"/>
<path d="M4900 6520 c0 -5 5 -10 11 -10 5 0 7 5 4 10 -3 6 -8 10 -11 10 -2 0
-4 -4 -4 -10z"/>
<path d="M8572 6373 c6 -7 16 -13 22 -13 6 0 5 4 -3 9 -11 7 -11 9 0 14 8 3 4
4 -8 4 -17 -1 -19 -4 -11 -14z"/>
<path d="M9647 6345 c-4 -8 -3 -16 1 -19 4 -3 9 4 9 15 2 23 -3 25 -10 4z"/>
<path d="M836 6258 c3 -5 10 -6 15 -3 13 9 11 12 -6 12 -8 0 -12 -4 -9 -9z"/>
<path d="M8531 6064 c0 -11 3 -14 6 -6 3 7 2 16 -1 19 -3 4 -6 -2 -5 -13z"/>
<path d="M8531 5894 c0 -11 3 -14 6 -6 3 7 2 16 -1 19 -3 4 -6 -2 -5 -13z"/>
<path d="M7211 5554 c0 -11 3 -14 6 -6 3 7 2 16 -1 19 -3 4 -6 -2 -5 -13z"/>
<path d="M8517 5158 c-8 -18 -23 -53 -33 -78 -32 -78 -141 -293 -179 -353 -21
-33 -41 -54 -47 -51 -7 4 -8 2 -4 -5 13 -20 -98 -157 -246 -304 -94 -94 -144
-137 -154 -133 -8 3 -12 2 -9 -3 7 -12 -35 -42 -48 -34 -6 3 -7 2 -4 -4 4 -6
-14 -25 -39 -42 -39 -28 -47 -31 -62 -19 -15 11 -16 11 -4 -3 11 -15 8 -20
-22 -39 -20 -12 -41 -18 -47 -14 -8 5 -9 3 -4 -6 6 -10 4 -12 -9 -7 -10 4 -15
3 -11 -3 3 -5 -4 -14 -15 -20 -11 -6 -20 -7 -20 -3 0 4 -4 3 -8 -3 -12 -19
-141 -86 -152 -79 -5 3 -10 2 -10 -3 0 -14 -67 -41 -88 -35 -16 4 -21 1 -19
-15 0 -11 4 -20 7 -19 10 3 89 -46 85 -53 -3 -4 1 -7 8 -7 20 2 159 -71 145
-76 -7 -2 -2 -5 12 -5 20 0 164 -44 290 -89 8 -3 25 -7 37 -9 12 -1 57 -10
100 -18 258 -51 355 -56 1302 -56 l864 -1 50 78 c28 43 97 152 155 243 101
160 137 212 113 160 -11 -23 -11 -23 3 -7 8 11 12 26 9 35 -5 11 -3 13 7 7 8
-5 11 -4 6 3 -4 6 19 51 50 99 66 101 78 117 69 88 -5 -15 -4 -17 3 -6 6 8 8
19 6 25 -6 16 71 128 81 119 4 -5 5 -3 1 4 -3 6 12 40 34 75 22 35 40 67 40
73 0 6 -140 10 -384 10 -250 1 -389 5 -398 11 -28 23 -38 25 -32 10 5 -14 -14
-16 -162 -17 -235 -1 -277 1 -293 14 -12 10 -13 9 -7 -2 13 -21 -531 -10 -634
13 -86 20 -226 85 -222 105 1 7 -1 10 -6 7 -20 -12 -88 93 -78 120 3 8 2 12
-4 9 -14 -9 -25 62 -23 155 2 84 4 109 18 163 10 37 1 34 -18 -5z"/>
<path d="M8295 5000 c3 -5 10 -10 16 -10 5 0 9 5 9 10 0 6 -7 10 -16 10 -8 0
-12 -4 -9 -10z"/>
<path d="M10436 4978 c3 -5 10 -6 15 -3 13 9 11 12 -6 12 -8 0 -12 -4 -9 -9z"/>
<path d="M6400 4710 c-9 -6 -10 -10 -3 -10 6 0 15 5 18 10 8 12 4 12 -15 0z"/>
<path d="M8778 4633 c7 -3 16 -2 19 1 4 3 -2 6 -13 5 -11 0 -14 -3 -6 -6z"/>
<path d="M9960 4622 c0 -5 7 -16 16 -23 14 -12 16 -11 13 5 -4 20 -29 35 -29
18z"/>
<path d="M4015 4610 c-3 -5 -1 -10 4 -10 6 0 11 5 11 10 0 6 -2 10 -4 10 -3 0
-8 -4 -11 -10z"/>
<path d="M5600 4465 c0 -2 6 -8 13 -14 10 -8 14 -7 14 2 0 8 -6 14 -14 14 -7
0 -13 -1 -13 -2z"/>
<path d="M10910 4210 c-9 -6 -10 -10 -3 -10 6 0 15 5 18 10 8 12 4 12 -15 0z"/>
<path d="M7520 4072 c0 -5 7 -9 15 -9 8 0 12 4 9 9 -3 4 -9 8 -15 8 -5 0 -9
-4 -9 -8z"/>
<path d="M10426 3942 c5 -4 12 -11 15 -15 3 -5 9 -2 12 5 3 9 -3 14 -15 15
-11 1 -16 -1 -12 -5z"/>
<path d="M10436 3618 c3 -5 10 -6 15 -3 13 9 11 12 -6 12 -8 0 -12 -4 -9 -9z"/>
<path d="M8308 3563 c7 -3 16 -2 19 1 4 3 -2 6 -13 5 -11 0 -14 -3 -6 -6z"/>
<path d="M836 3538 c3 -5 10 -6 15 -3 13 9 11 12 -6 12 -8 0 -12 -4 -9 -9z"/>
<path d="M9480 3546 c0 -2 7 -7 16 -10 8 -3 12 -2 9 4 -6 10 -25 14 -25 6z"/>
<path d="M10910 3090 c-9 -6 -10 -10 -3 -10 6 0 15 5 18 10 8 12 4 12 -15 0z"/>
<path d="M836 3058 c3 -5 10 -6 15 -3 13 9 11 12 -6 12 -8 0 -12 -4 -9 -9z"/>
<path d="M836 2898 c3 -5 10 -6 15 -3 13 9 11 12 -6 12 -8 0 -12 -4 -9 -9z"/>
<path d="M10436 2898 c3 -5 10 -6 15 -3 13 9 11 12 -6 12 -8 0 -12 -4 -9 -9z"/>
<path d="M836 2498 c3 -5 10 -6 15 -3 13 9 11 12 -6 12 -8 0 -12 -4 -9 -9z"/>
<path d="M10437 2413 c3 -7 6 -13 8 -13 2 0 5 6 8 13 3 8 -1 14 -8 14 -7 0
-11 -6 -8 -14z"/>
<path d="M9480 2179 c0 -5 5 -7 10 -4 6 3 10 8 10 11 0 2 -4 4 -10 4 -5 0 -10
-5 -10 -11z"/>
<path d="M9960 2020 c-9 -6 -10 -10 -3 -10 6 0 15 5 18 10 8 12 4 12 -15 0z"/>
<path d="M10420 1946 c0 -2 7 -7 16 -10 8 -3 12 -2 9 4 -6 10 -25 14 -25 6z"/>
<path d="M10436 1617 c3 -10 9 -15 12 -12 3 3 0 11 -7 18 -10 9 -11 8 -5 -6z"/>
<path d="M10445 1379 c-4 -6 -5 -12 -2 -15 2 -3 7 2 10 11 7 17 1 20 -8 4z"/>
<path d="M836 978 c3 -5 10 -6 15 -3 13 9 11 12 -6 12 -8 0 -12 -4 -9 -9z"/>
<path d="M836 18 c3 -5 10 -6 15 -3 13 9 11 12 -6 12 -8 0 -12 -4 -9 -9z"/>
<path d="M10436 18 c3 -5 10 -6 15 -3 13 9 11 12 -6 12 -8 0 -12 -4 -9 -9z"/>
</g>
</svg>
